<?xml version="1.0" encoding="utf-8"?>
<!-- Generator: Adobe Illustrator 21.0.2, SVG Export Plug-In . SVG Version: 6.00 Build 0)  -->
<!DOCTYPE svg PUBLIC "-//W3C//DTD SVG 1.1//EN" "http://www.w3.org/Graphics/SVG/1.1/DTD/svg11.dtd" [
	<!ENTITY ns_extend "http://ns.adobe.com/Extensibility/1.0/">
	<!ENTITY ns_ai "http://ns.adobe.com/AdobeIllustrator/10.0/">
	<!ENTITY ns_graphs "http://ns.adobe.com/Graphs/1.0/">
	<!ENTITY ns_vars "http://ns.adobe.com/Variables/1.0/">
	<!ENTITY ns_imrep "http://ns.adobe.com/ImageReplacement/1.0/">
	<!ENTITY ns_sfw "http://ns.adobe.com/SaveForWeb/1.0/">
	<!ENTITY ns_custom "http://ns.adobe.com/GenericCustomNamespace/1.0/">
	<!ENTITY ns_adobe_xpath "http://ns.adobe.com/XPath/1.0/">
]>
<svg version="1.1" id="Layer_1" xmlns:x="&ns_extend;" xmlns:i="&ns_ai;" xmlns:graph="&ns_graphs;"
	 xmlns="http://www.w3.org/2000/svg" xmlns:xlink="http://www.w3.org/1999/xlink" x="0px" y="0px" width="563.1px" height="442.4px"
	 viewBox="0 0 563.1 442.4" style="enable-background:new 0 0 563.1 442.4;" xml:space="preserve">
<style type="text/css">
	.st0{fill:#325187;}
	.st1{fill:#D19161;}
	.st2{fill:#DBE1EE;}
	.st3{opacity:0.2;fill:#649EF7;}
	.st4{opacity:0.2;}
	.st5{fill:none;stroke:#649EF7;stroke-width:2;stroke-linecap:round;stroke-miterlimit:10;}
	.st6{fill:#D29263;}
	.st7{fill:url(#SVGID_1_);}
	.st8{fill:url(#SVGID_2_);}
	.st9{fill:#FFFFFF;}
	.st10{fill:#D89868;}
	.st11{fill:none;stroke:url(#SVGID_3_);stroke-width:26;stroke-linecap:round;stroke-linejoin:round;stroke-miterlimit:10;}
	.st12{fill:#7394DB;}
	.st13{fill:url(#SVGID_4_);}
	.st14{fill:url(#SVGID_5_);}
	.st15{fill:url(#SVGID_6_);}
	.st16{opacity:0.3;fill:#DDCCA2;}
	.st17{fill:#C8885B;}
	.st18{fill:#CB8B5E;}
	.st19{opacity:0.3;}
	.st20{fill:#DDCCA2;}
	.st21{opacity:0.15;fill:url(#SVGID_7_);}
	.st22{fill:#5469B2;}
	.st23{fill:#EBEEF7;}
	.st24{fill:none;stroke:#EBEEF7;stroke-width:2;stroke-linecap:round;stroke-miterlimit:10;}
	.st25{fill:#243865;}
	.st26{fill:none;stroke:#243865;stroke-width:3;stroke-linecap:round;stroke-miterlimit:10;}
	.st27{opacity:0.2;fill:none;stroke:#649EF7;stroke-width:4;stroke-linecap:round;stroke-miterlimit:10;}
	.st28{fill:#649EF7;}
	.st29{fill:none;stroke:#DBE1EE;stroke-width:4;stroke-linecap:round;stroke-miterlimit:10;}
	.st30{fill:#4B4784;}
	.st31{fill:none;stroke:#FFFFFF;stroke-width:4;stroke-linecap:round;stroke-linejoin:round;stroke-miterlimit:10;}
</style>
<metadata>
	<sfw  xmlns="&ns_sfw;">
		<slices></slices>
		<sliceSourceBounds  bottomLeftOrigin="true" height="442.4" width="432.2" x="-206.4" y="-1053.6"></sliceSourceBounds>
	</sfw>
</metadata>
<g>
	<path class="st0" d="M447.6,96.7l-1.5,14.9c-0.4,3.8,2.9,7,6.7,6.4l0,0c3.8-0.6,6-4.6,4.5-8.1l-5.9-13.7
		C450.5,94.3,447.8,94.7,447.6,96.7z"/>
	<path class="st0" d="M482.9,98.3l-7.6,6.9c-1.9,1.8-1.7,4.9,0.5,6.3l0,0c2.2,1.4,5.1,0.4,6-2.1l3.2-9.7
		C485.5,98.4,483.9,97.4,482.9,98.3z"/>
	<path class="st0" d="M493.4,109.2l-9,4.7c-2.3,1.2-2.9,4.3-1.1,6.2v0c1.8,1.9,4.9,1.7,6.3-0.5l5.6-8.5
		C495.8,109.9,494.6,108.5,493.4,109.2z"/>
	<path class="st0" d="M499.4,123l-9.7,3c-2.5,0.8-3.6,3.7-2.2,5.9v0c1.4,2.2,4.5,2.5,6.3,0.6l7-7.4
		C501.7,124.2,500.7,122.6,499.4,123z"/>
</g>
<g>
	<path class="st1" d="M143.2,208.2c-0.5,3.1,0.1,3.2-0.4,6.3c-0.5,3.1-0.5,3.1-1,6.2l-0.2,0.2c-2-0.9-3.5-2.6-5.2-4
		c-1.7-1.4-3.5-2.6-4.8-4.3c-1.3-1.7-2.1-3.8-2.9-5.8c-0.1-0.1-0.3,0-0.3-0.2"/>
</g>
<g>
	<path class="st1" d="M150.9,211.7c-0.1,4.2,0.4,4.2,0.3,8.4l-0.2,0.1c-2.1-0.7-4.1-1.7-5.8-3.1c-1.7-1.4-2.6-3.4-3.7-5.4
		c0-0.1-0.5,0.2-0.6,0.1"/>
</g>
<path class="st2" d="M303,308.9h-98.6c-26.6,0-48.2-21.6-48.2-48.2V128.6c0-18.8,15.2-34,34-34H303c15.6,0,28.3,12.7,28.3,28.3
	v157.7C331.2,296.3,318.6,308.9,303,308.9z"/>
<ellipse class="st3" cx="164" cy="141" rx="4.7" ry="6"/>
<g class="st4">
	<line class="st5" x1="168.7" y1="241.8" x2="161.4" y2="241.8"/>
	<line class="st5" x1="168.7" y1="252.7" x2="161.4" y2="252.7"/>
	<line class="st5" x1="168.7" y1="263.5" x2="161.4" y2="263.5"/>
	<line class="st5" x1="168.7" y1="258.1" x2="161.4" y2="258.1"/>
	<line class="st5" x1="168.7" y1="247.2" x2="161.4" y2="247.2"/>
</g>
<rect x="165.1" y="156.6" class="st3" width="2.4" height="3.3"/>
<rect x="160.4" y="150.6" class="st3" width="2.4" height="3.3"/>
<g>
	<g>
		<g>
			<path class="st6" d="M368.3,369.8c2.7,1.6,3,1.1,5.7,2.7c2.7,1.6,2.7,1.7,5.3,3.2l-0.3,0c0.5-2.1,1.3-4.2,1.3-6.4
				c0-2.2-0.8-4.3-1.4-6.4c-0.5-2.1-1.1-4.2-2.1-6.1c-0.1-0.1-0.3,0-0.3-0.1"/>
		</g>
		<g>
			<path class="st6" d="M374.1,361.4c4.1,0.6,4.2,0,8.4,0.6l-0.1,0.2c-0.3-2.2-1.2-4.1-2.3-6c-1.1-1.9-2.1-3.9-3.8-5.3
				c-0.1-0.1-0.4,0.4-0.5,0.3"/>
		</g>
		<g>
			<path class="st6" d="M366.4,376.1c3,2.9,3.4,2.5,6.5,5.3l-0.2,0.1c1-2,1.4-4.1,1.6-6.2s0.6-4.4,0-6.5c0-0.1-0.5,0.1-0.6,0"/>
		</g>
	</g>
	<g>
		<linearGradient id="SVGID_1_" gradientUnits="userSpaceOnUse" x1="353.0083" y1="257.1335" x2="309.342" y2="448.7327">
			<stop  offset="0.4192" style="stop-color:#D89868"/>
			<stop  offset="0.6815" style="stop-color:#CE8E5F"/>
			<stop  offset="1" style="stop-color:#C68659"/>
		</linearGradient>
		<path class="st7" d="M366.8,274.3l5.7,16.2l3.4,9.5c0.6,2,1.2,3.9,1.7,5.9c0.5,2,1,4,1.4,6c1.6,8,2.3,16.1,2.1,24.2
			c-0.3,8.1-1.5,16-3.6,23.6c-4.2,15.3-11.8,29.3-22.2,40.8c-10.2,11.5-23.2,20.3-37.1,25.8l10.7-10.4l-4.9,6.1
			c-7.5,9.3-21.1,10.8-30.5,3.3c-6.9-5.5-9.5-14.4-7.4-22.4l2-7.6c0.8-2.9,2.5-5.2,4.9-6.7l5.9-3.7c6.7-4.3,12.2-9.8,16-16.3
			c3.8-6.4,6-13.6,6.5-20.6c0.2-3.5,0-7-0.5-10.3c-0.6-3.3-1.6-6.5-2.9-9.5c-0.3-0.8-0.7-1.5-1-2.2l-1.2-2.1l-0.6-1l-0.3-0.5
			l-0.5-0.8l-2.1-3.7l-8.4-15c-9.3-16.7-3.3-37.8,13.4-47.1c16.7-9.3,37.8-3.3,47.1,13.4C365.3,270.6,366.1,272.5,366.8,274.3z"/>
	</g>
	<g>
		<path class="st0" d="M276.3,424.9l5.9-9c1.5-2.3,4.8-2.6,6.7-0.5v0c1.9,2.1,1.3,5.3-1.2,6.6l-9.6,5
			C276.8,427.6,275.5,426.1,276.3,424.9z"/>
		<path class="st0" d="M288.5,435.3l5-9.6c1.3-2.5,4.5-3.1,6.6-1.2l0,0c2.1,1.9,1.8,5.2-0.5,6.7l-9,6
			C289.3,438,287.8,436.6,288.5,435.3z"/>
		<path class="st0" d="M304.9,440.7l1.9-10.6c0.5-2.7,3.4-4.3,6-3.1l0,0c2.5,1.2,3.2,4.4,1.5,6.5l-6.9,8.3
			C306.5,443,304.7,442.1,304.9,440.7z"/>
	</g>
</g>
<g>
	<g>
		<linearGradient id="SVGID_2_" gradientUnits="userSpaceOnUse" x1="258.1951" y1="239.9414" x2="174.5812" y2="422.1308">
			<stop  offset="0.4192" style="stop-color:#D89868"/>
			<stop  offset="0.6815" style="stop-color:#CE8E5F"/>
			<stop  offset="1" style="stop-color:#C68659"/>
		</linearGradient>
		<path class="st8" d="M268.3,259.9l1.3,17.9l0.6,9l0.1,1.1l0.2,1.5l0.4,3.1c0.2,2.1,0.4,4.2,0.6,6.3c0.5,8.4,0,16.8-1.5,24.9
			c-1.5,8.2-4,16.1-7.4,23.5c-3.4,7.4-7.6,14.4-12.6,20.7c-5,6.3-10.7,12-17,16.9c-6.3,4.9-13.1,9-20.3,12.2
			c-7.2,3.2-14.7,5.4-22.3,6.8l12.7-8.3l-4.3,4.2c-8.5,8.5-22.3,8.4-30.7-0.1c-7-7-8.1-17.6-3.6-25.8l2.9-5.3
			c1.7-3.1,4.5-5.3,7.6-6.4l5.1-1.8c3.9-1.4,7.6-3.3,11-5.5c3.4-2.2,6.4-4.9,9.1-7.7c2.7-2.9,4.9-6.1,6.8-9.5
			c1.8-3.4,3.2-7,4.2-10.5c0.9-3.6,1.4-7.3,1.4-10.9c0-3.6-0.4-7.1-1.2-10.6c-0.2-0.9-0.5-1.7-0.7-2.5l-0.4-1.3l-0.2-0.6l-0.4-1.1
			l-3.2-8.4L200,275c-7-18.3,2.2-38.7,20.5-45.6s38.7,2.2,45.6,20.5C267.4,253.1,268.1,256.6,268.3,259.9z"/>
	</g>
	<g>
		<path class="st0" d="M150.8,394.2l7.8-7.9c2-2,5.4-1.6,6.9,0.8h0c1.5,2.5,0.2,5.6-2.5,6.4l-10.7,3.1
			C150.8,397.1,149.7,395.3,150.8,394.2z"/>
		<path class="st0" d="M159,408.1l6.5-9.1c1.7-2.3,5.1-2.4,6.9-0.2l0,0c1.8,2.2,1.1,5.5-1.5,6.8l-10.1,4.7
			C159.5,410.9,158.1,409.3,159,408.1z"/>
		<path class="st0" d="M173.8,415.9l5.1-9.9c1.3-2.5,4.7-3.2,6.8-1.2l0,0c2.1,1.9,1.9,5.3-0.5,6.9l-9.3,6.1
			C174.6,418.6,173.1,417.2,173.8,415.9z"/>
	</g>
</g>
<path class="st9" d="M352.4,308.9H223.1c-26.6,0-48.2-21.6-48.2-48.2V128.6c0-18.8,15.2-34,34-34h143.6c15.6,0,28.3,12.7,28.3,28.3
	v157.7C380.7,296.3,368,308.9,352.4,308.9z"/>
<g>
	<polygon class="st10" points="231.9,302.8 229.7,310 224.6,315.5 217.3,316.2 210.6,314.5 205.3,309.8 202.3,302.8 205.4,296 
		209.7,289.5 217.3,287.5 224.9,289.7 230.2,295.4 	"/>
</g>
<linearGradient id="SVGID_3_" gradientUnits="userSpaceOnUse" x1="243.9271" y1="317.1088" x2="298.5719" y2="317.1088">
	<stop  offset="0" style="stop-color:#D89868"/>
	<stop  offset="0.9677" style="stop-color:#C68659"/>
</linearGradient>
<polyline class="st11" points="285.6,310.8 272.9,323.4 256.9,323.4 "/>
<g>
	<path class="st0" d="M120.5,137.5l1.5,14.9c0.4,3.8-2.9,7-6.7,6.4h0c-3.8-0.6-6-4.6-4.5-8.1l5.9-13.7
		C117.5,135.1,120.2,135.5,120.5,137.5z"/>
	<path class="st0" d="M85.2,143.1l7.6,6.9c1.9,1.8,1.7,4.9-0.5,6.3h0c-2.2,1.4-5.1,0.4-6-2.1l-3.2-9.7
		C82.6,143.3,84.1,142.2,85.2,143.1z"/>
	<path class="st0" d="M74.7,154l9,4.7c2.3,1.2,2.9,4.3,1.1,6.2v0c-1.8,1.9-4.9,1.7-6.3-0.5l-5.6-8.5C72.2,154.7,73.5,153.4,74.7,154
		z"/>
	<path class="st0" d="M70.6,168.8l9.7,3c2.5,0.8,3.6,3.7,2.2,5.9l0,0c-1.4,2.2-4.5,2.5-6.3,0.6l-7-7.4
		C68.3,170,69.3,168.4,70.6,168.8z"/>
</g>
<rect x="437" y="131.5" transform="matrix(0.7325 -0.6808 0.6808 0.7325 26.4268 334.8762)" class="st12" width="4.6" height="4.6"/>
<linearGradient id="SVGID_4_" gradientUnits="userSpaceOnUse" x1="312.3325" y1="150.8597" x2="491.9018" y2="119.1967">
	<stop  offset="0" style="stop-color:#C68659"/>
	<stop  offset="0.8304" style="stop-color:#C68659"/>
	<stop  offset="0.9677" style="stop-color:#C68659"/>
</linearGradient>
<path class="st13" d="M333.2,99.4l33.5,23.9l4.2,3l2.1,1.5c0.3,0.2,0.7,0.5,1,0.7l0.8,0.5c2.1,1.4,4.3,2.5,6.5,3.6
	c2.2,1,4.5,1.9,6.8,2.6c2.3,0.7,4.6,1.2,7,1.6c9.4,1.4,19,0.1,27.3-3.6c8.3-3.6,15.1-9.5,20-16.6c8.7-12.9,26.2-16.2,39.1-7.5
	s16.2,26.2,7.5,39.1c-0.8,1.2-1.7,2.3-2.6,3.3l-1.1,1.1c-6.4,6.9-13.7,13-21.8,17.8c-2,1.3-4.1,2.3-6.1,3.4c-2.1,1-4.2,2.1-6.3,3
	c-4.3,1.9-8.7,3.4-13.1,4.5c-17.8,4.8-36.6,4.5-53.8-0.7c-4.3-1.3-8.5-2.9-12.5-4.8c-4-1.9-7.9-4-11.6-6.5c-3.7-2.4-7.2-5-10.5-7.9
	l-1.2-1.1c-0.4-0.4-0.7-0.6-1-0.9l-1.9-1.8l-3.8-3.5L311.5,126c-7-6.5-7.3-17.4-0.9-24.4C316.6,95.3,326.3,94.4,333.2,99.4z"/>
<circle class="st3" cx="189.7" cy="228.3" r="11.7"/>
<linearGradient id="SVGID_5_" gradientUnits="userSpaceOnUse" x1="86.0399" y1="200.3121" x2="261.9313" y2="129.2474">
	<stop  offset="0" style="stop-color:#C68659"/>
	<stop  offset="0.8304" style="stop-color:#C68659"/>
	<stop  offset="0.9677" style="stop-color:#C68659"/>
</linearGradient>
<path class="st14" d="M255.5,134.2l-23.9,34.2l-3,4.3l-1.5,2.1l-0.7,1.1c-0.3,0.4-0.5,0.7-0.8,1.2c-2.6,3.6-5.5,7-8.6,10.2
	c-6.3,6.4-13.5,12-21.4,16.4c-15.8,8.9-34.4,13.2-53,12.1c-2.3-0.1-4.6-0.4-7-0.6c-2.3-0.4-4.6-0.7-6.9-1.2
	c-4.6-0.9-9.2-2.2-13.6-3.8c-8.9-3.2-17.4-7.8-25.1-13.4l-1-0.7c-12.3-8.9-15-26.1-6.1-38.4c8.9-12.3,26.1-15,38.4-6.1
	c1,0.8,2.1,1.7,3,2.6c6.3,6.1,14.4,10.5,23.5,12.3c9,1.8,18.9,1,27.9-2.6c4.5-1.8,8.8-4.2,12.7-7.3c1.9-1.5,3.8-3.2,5.5-5.1
	c0.2-0.2,0.5-0.5,0.8-0.9l0.9-1l1.7-1.9l3.5-3.9l27.9-31.1c6.4-7.1,17.3-7.7,24.3-1.3C259.4,117.4,260.4,127.1,255.5,134.2z"/>
<linearGradient id="SVGID_6_" gradientUnits="userSpaceOnUse" x1="294.5489" y1="186.751" x2="284.6667" y2="284.161" gradientTransform="matrix(-1 0 0 -1 586.1631 460.5522)">
	<stop  offset="0" style="stop-color:#D89868"/>
	<stop  offset="1" style="stop-color:#C68659"/>
</linearGradient>
<path class="st15" d="M390.6,220.8c15.7,63.8-31.2,126.6-96.8,128.2c-0.9,0-1.8,0-2.7,0h0c-57.5,0-94.3-45.7-96.1-102.8
	c-0.1-2.1,0.1-4.1,0.5-6.1l8.3-78.3c6-39.4,38-69.6,77.6-73.5l0,0c45.5-4.4,86.8,27.1,94.4,72.2L390.6,220.8z"/>
<circle class="st16" cx="105.3" cy="173" r="20"/>
<g>
	<path class="st17" d="M380.4,202c3.1-0.1,3.1-0.7,6.2-0.8c3.1-0.1,3.1-0.1,6.2-0.2l-0.2,0.1c-0.7-2.1-1.2-4.3-2.4-6.1
		c-1.2-1.8-3-3.1-4.6-4.6c-1.6-1.5-3.2-3-5.1-4c-0.1-0.1-0.2,0.1-0.4,0.1"/>
</g>
<g>
	<path class="st18" d="M383.1,210c4.2,0.3,4.2-0.3,8.4,0l-0.1,0.2c-0.5-2.1-1.5-4.1-2.7-5.8s-2.4-3.8-4.2-5
		c-0.1-0.1-0.4,0.4-0.5,0.3"/>
</g>
<g class="st19">
	<path class="st20" d="M375.8,222.6c-0.8-3.4-0.5-3.5-1.3-6.8c-0.8-3.4-1-3.3-1.8-6.7c-0.8-3.4-0.7-3.4-1.5-6.8
		c-0.8-3.4-0.5-3.5-1.3-6.9c-0.8-3.4-1.2-3.3-2.1-6.7c-0.8-3.4-1.1-3.3-1.9-6.7c-0.8-3.4-0.9-3.4-1.7-6.7c-0.8-3.4-0.2-3.5-1-6.9
		c-0.8-3.4-0.8-3.4-1.6-6.8c-0.1-0.4-0.1-0.3-0.2-0.7c-0.4-2.4-1-4.8-1.6-7.1c-0.7-2.3-1.6-4.6-2.5-6.8c-0.9-2.3-1.5-4.7-2.6-6.8
		c-1.1-2.1-2.8-4-4.2-6c-1.4-2-3.2-3.6-4.7-5.5c-1.6-1.8-2.8-4-4.6-5.6c-1.8-1.7-3.5-3.3-5.5-4.8c-1.9-1.5-3.9-2.9-6-4.1
		c-2.1-1.2-4.2-2.4-6.4-3.4c-2.2-1-4.7-1.3-7-2c-2.3-0.8-4.6-1.4-6.9-1.9c-2.3-0.5-4.7-0.8-7.1-1c-2.4-0.3-4.7-0.4-7.2-0.4
		c-2.2,0-4.4-0.6-6.6-0.4c-2.5,0.2-4.8,1-7.2,1.5c-2.4,0.5-4.8,1.1-7.1,1.8c-2.3,0.8-4.8,1.2-7,2.2c-2.2,1-4.3,2.5-6.4,3.7
		c-2.1,1.3-4.2,2.5-6.2,4c-2,1.5-4,3-5.8,4.6c-1.8,1.7-3.3,3.7-4.9,5.5c-1.6,1.9-3.2,3.8-4.6,5.8c-1.4,2-2.3,4.3-3.5,6.5
		c-1.1,2.2-2.4,4.3-3.3,6.6c-0.9,2.3-2,4.5-2.7,6.9c-0.6,2.3-0.6,4.9-1,7.3c-0.4,3.4-0.2,3.5-0.5,6.9c-0.4,3.5-1,3.4-1.4,6.8
		c-0.4,3.5-0.2,3.5-0.6,6.9c-0.4,3.5-0.4,3.4-0.8,6.9c-0.4,3.5,0,3.5-0.4,6.9c-0.4,3.5,0,3.5-0.4,6.9c-0.4,3.5-0.3,3.5-0.7,6.9
		c-0.4,3.5-1.2,3.4-1.6,6.8c-0.4,3.5,0,3.5-0.4,6.9c-0.4,3.5,0.2,3.5-0.2,7s0.2,3.7-0.8,7c-1.9,1.7-3.4,3.9-4.4,6.3l-0.4,0.1
		c1.8,0.2,2.1-0.9,3.4,0.4c-1.2,2-2.2,3.9-2.9,6.2c-0.6,2.3-0.8,5.1-0.8,7.5c2.7,0.4,2.8-3.2,5.4-2.4c-0.8,2.8-1,6.2-0.4,9.1
		c0.8,0.6,0.8-1.4,1.7-0.9c0.5,2.4,1.6,4.6,2.3,6.9c0.7,2.4,1.1,4.8,2,7.1c0.9,2.3,2.4,4.3,3.5,6.5c1.1,2.2,2,4.5,3.3,6.5
		c1.3,2.1,2.1,4.5,3.5,6.5c1.5,2,3.6,3.4,5.3,5.2c1.7,1.9,3.5,3.6,5.4,5.3c1.9,1.7,3.5,3.6,5.6,5.1c2.1,1.5,4.4,2.4,6.6,3.7
		c2.2,1.2,4.1,3.1,6.4,4.1c2.3,1,4.9,1.4,7.3,2.2c2.4,0.7,4.9,1,7.4,1.5c2.5,0.5,4.9,1.4,7.4,1.6c2.5,0.2,5,0,7.6,0
		c0.7,0,1.4-0.1,2.2-0.1c2.5-0.1,4.9,0.3,7.3,0c2.4-0.3,4.9-0.6,7.3-1.1c2.4-0.5,4.7-1.3,7.1-2c2.3-0.7,4.5-1.8,6.8-2.7
		c2.3-0.9,4.4-2.1,6.6-3.2c2.2-1.1,4.6-1.7,6.7-3c2.1-1.3,3.9-2.9,5.8-4.4c1.9-1.5,3.5-3.3,5.3-5c1.8-1.6,4-2.9,5.7-4.7
		c1.6-1.8,2.8-4,4.3-6c1.5-2,3.4-3.8,4.8-5.9c1.3-2.1,2.1-4.6,3.2-6.8c1.2-2.2,2.2-4.5,3.2-6.8c0.9-2.3,1.7-4.7,2.4-7.1
		c0.7-2.4,1.7-4.7,2.2-7.2c0.5-2.5,0.6-5,0.9-7.5c0.3-2.5,1.1-4.9,1.2-7.5c0.1-2.5-0.7-5-0.9-7.5c-0.2-2.5-0.3-5-0.7-7.5
		C377,227.5,376.4,225.1,375.8,222.6z"/>
</g>
<ellipse transform="matrix(3.660231e-02 -0.9993 0.9993 3.660231e-02 316.1839 591.3892)" class="st16" cx="464.8" cy="131.7" rx="20" ry="20"/>
<path class="st2" d="M319.4,222.5h-46.4c-3.3,0-6-2.7-6-6v-26.9c0-3.3,2.7-6,6-6h46.4V222.5z"/>
<g>
	<path class="st9" d="M344.6,99.3l5.3,19c1.8,6.5,3.4,13.1,4.8,19.8c2.6,13.3,4.2,26.8,4.7,40.4l0.5,19.8l0.2,9.9l0.1,4.6
		c0,0.6,0.2,1.3,0.5,1.8c0.3,0.6,0.8,1.1,1.4,1.4c0.3,0.2,0.6,0.3,0.9,0.4c0.2,0.1,0.3,0.1,0.5,0.1c0,0,0.3,0,0.5,0.1l0.6,0.1
		l9.8,1.1l19.6,2.3c2.9,0.3,4.9,2.9,4.6,5.8c-0.3,2.8-2.8,4.8-5.6,4.6l-19.7-1.4l-9.8-0.7l-0.6,0c-0.2,0-0.4,0-0.7-0.1
		c-0.6-0.1-1.3-0.2-1.9-0.3c-1.3-0.3-2.5-0.7-3.7-1.3c-2.3-1.2-4.4-3-5.9-5.2c-1.5-2.2-2.5-4.7-2.7-7.4l-0.1-0.9l0-0.6l-0.1-1.2
		l-0.2-2.5l-0.6-9.9l-1.3-19.6c-0.9-12.8-3-25.4-6-37.8c-1.5-6.2-3.3-12.3-5.3-18.4l-6.1-18.8c-1.5-4.5,1-9.3,5.4-10.7
		c4.5-1.5,9.3,1,10.7,5.4C344.5,99,344.6,99.2,344.6,99.3z"/>
</g>
<g>
	<path class="st9" d="M255.9,109.8l-2.8,9.5c-0.9,3.1-1.8,6.1-2.5,9.2c-1.6,6.1-2.9,12.4-3.9,18.6c-1,6.3-1.8,12.6-2.3,18.9
		c-0.2,3.2-0.4,6.4-0.5,9.5l-0.1,4.9l-0.1,5l-0.5,19.8l-0.1,5l-0.1,2.5l0,1c0,0.4,0,0.7-0.1,1.1c-0.1,0.7-0.2,1.5-0.4,2.2
		c-1.4,5.7-5.8,10.5-11.3,12.4c-0.7,0.2-1.4,0.4-2.1,0.6l-1.1,0.2l-0.3,0l-0.2,0l-0.3,0l-2.5,0.3l-4.9,0.6l-9.9,1.2l-19.7,2.4
		c-3.5,0.4-6.7-2.1-7.2-5.6c-0.4-3.4,2-6.5,5.3-7.1l19.6-3.4l9.8-1.7l4.9-0.8l2.4-0.4l0.3-0.1l0.2,0l0,0c0.1,0,0.1,0,0.2,0
		c0.1,0,0.2-0.1,0.3-0.1c0.8-0.3,1.3-1.1,1.4-1.9c0-0.1,0-0.2,0-0.3c0,0,0-0.1,0-0.1l0-0.3l-0.1-2.5l-0.1-5l-0.5-19.8l-0.1-5l-0.1-5
		c-0.1-3.4,0-6.9,0.1-10.3c0.2-6.9,0.7-13.7,1.4-20.6c0.8-6.8,1.8-13.7,3.2-20.4c0.7-3.4,1.4-6.8,2.2-10.1l2.3-9.6
		c1.4-5.6,7-9.1,12.7-7.8c5.6,1.4,9.1,7,7.8,12.7C256,109.5,256,109.7,255.9,109.8z"/>
</g>
<g>
	<linearGradient id="SVGID_7_" gradientUnits="userSpaceOnUse" x1="359.9482" y1="19.906" x2="290.0333" y2="90.6841">
		<stop  offset="0" style="stop-color:#FFFFFF"/>
		<stop  offset="1" style="stop-color:#FFFFFF;stop-opacity:0"/>
	</linearGradient>
	<circle class="st21" cx="294.7" cy="85.9" r="75.5"/>
	<g>
		<circle class="st3" cx="293.1" cy="85.9" r="85.9"/>
		<g class="st4">
			<path class="st9" d="M293,90.1c20.1,0,38.9,3.3,52.9,9.3c11.8,5.1,18.8,11.6,18.8,17.5s-7,12.4-18.8,17.5
				c-14,6-32.8,9.3-52.9,9.3c-20.1,0-38.9-3.3-52.9-9.3c-11.8-5.1-18.8-11.6-18.8-17.5s7-12.4,18.8-17.5
				C254.1,93.4,272.9,90.1,293,90.1 M293,83.1c-43.4,0-78.7,15.1-78.7,33.8s35.2,33.8,78.7,33.8s78.7-15.1,78.7-33.8
				S336.4,83.1,293,83.1L293,83.1z"/>
		</g>
	</g>
	<g>
		<path class="st22" d="M293.1,150.6c-36.3,0-66.8-10.5-76-24.7c14.4,27.3,43,45.9,76,45.9c33.1,0,61.8-18.7,76.2-46.2
			C360.2,140.1,329.5,150.6,293.1,150.6z"/>
		<circle class="st23" cx="319.8" cy="158.1" r="2.2"/>
		<circle class="st23" cx="278.3" cy="158.1" r="2.2"/>
		<g>
			<line class="st24" x1="286.2" y1="158.2" x2="286.2" y2="160.1"/>
			<line class="st24" x1="292" y1="156.3" x2="292" y2="162.1"/>
			<line class="st24" x1="297.8" y1="154.3" x2="297.8" y2="164"/>
			<line class="st24" x1="303.7" y1="156.3" x2="303.7" y2="162.1"/>
			<line class="st24" x1="309.5" y1="158.2" x2="309.5" y2="160.1"/>
		</g>
	</g>
</g>
<g>
	<path class="st10" d="M237.3,88.4c-3-26.3,12.9-51,38-59.3l0,0c11.4-3.8,23.8-3.8,35.2,0l0,0c24.1,8,39.8,31.2,38.2,56.6l-0.2,2.8
		c-1.8,27.9-25,49.7-53,49.7h-5.2C262.3,138.1,239.1,116.3,237.3,88.4L237.3,88.4z"/>
	<path class="st20" d="M308.6,101.7h-19.2c-10,0-18.1-8.1-18.1-18.1v-3.1c0-10,8.1-18.1,18.1-18.1h19.2c10,0,18.1,8.1,18.1,18.1v3.1
		C326.6,93.7,318.5,101.7,308.6,101.7z"/>
	<path class="st25" d="M300,79.8h-9.1c-3.5,0-6.3-2.8-6.3-6.3v-1.1c0-3.5,2.8-6.3,6.3-6.3h9.1c3.5,0,6.3,2.8,6.3,6.3v1.1
		C306.3,76.9,303.5,79.8,300,79.8z"/>
	<circle class="st25" cx="322.6" cy="56.6" r="3.3"/>
	<circle class="st25" cx="271.9" cy="56.6" r="3.3"/>
	<g>
		<path class="st25" d="M297,79.3l-1,6.6c0,0.3-0.3,0.5-0.6,0.4c-0.2,0-0.4-0.2-0.4-0.4l-1-6.6c-0.1-0.8,0.4-1.6,1.3-1.7
			c0.8-0.1,1.6,0.4,1.7,1.3C297,79,297,79.2,297,79.3z"/>
	</g>
	<path class="st26" d="M301.2,93.5h5.4c6,0,10.9-4.9,10.9-10.9v0"/>
	<circle class="st10" cx="343.9" cy="41.4" r="12.5"/>
	<path class="st20" d="M351.1,42.4c2.4,4.5-19.1-0.4-13.8-3.2C342.6,36.4,348.7,37.9,351.1,42.4z"/>
	<circle class="st10" cx="242.5" cy="41.4" r="12.5"/>
	<path class="st20" d="M235.3,42c-2.4,4.5,19.1-0.4,13.8-3.2C243.9,36.1,237.7,37.5,235.3,42z"/>
	<g>
		<path class="st10" d="M295.7,33.3c-0.9-4.2-2-3.9-2.8-8.1c-0.9-4.2-0.7-4.2-1.6-8.4l0.4,0.4c-2,1.1-4.5,1.4-6.2,2.7
			c-1.7,1.4-2.6,3.7-4,5.4c-1.4,1.7-3.2,3.1-4.3,5.1c-1.1,1.9-1.6,4.1-2.3,6.2c-0.1,0.2,0.6,0.4,0.5,0.6"/>
	</g>
	<g>
		<path class="st10" d="M303,37.7c-0.9-4.2-0.8-4.2-1.7-8.3s-2.1-3.9-3-8.1l0.2-0.7c-2,1.1-3.9,2.4-5.6,3.8c-1.7,1.4-3.5,3-4.9,4.6
			c-1.4,1.7-2.5,3.8-3.6,5.7c-1.1,1.9-1.3,4.3-2,6.4c-0.1,0.2-0.3,0.1-0.4,0.3"/>
	</g>
</g>
<rect x="348.4" y="164.3" class="st3" width="5.9" height="5.9"/>
<circle class="st3" cx="352" cy="177.7" r="3.3"/>
<path class="st27" d="M235,197c0.1-1.3,0.1-2.7,0.2-4"/>
<circle class="st28" cx="235.2" cy="183.1" r="3.5"/>
<path class="st29" d="M353.2,193H343c-2.8,0-5,2.3-5,5v0c0,2.8-2.3,5-5,5h-11"/>
<path class="st9" d="M318.5,222.5h-40.4c-3.3,0-6-2.7-6-6v-26.9c0-3.3,2.7-6,6-6h40.4c3.3,0,6,2.7,6,6v26.9
	C324.5,219.8,321.9,222.5,318.5,222.5z"/>
<circle class="st30" cx="286.5" cy="198.7" r="5"/>
<circle class="st9" cx="286.5" cy="198.7" r="1.5"/>
<circle class="st28" cx="286.5" cy="209.7" r="3"/>
<rect x="298.9" y="195.1" class="st3" width="6" height="6"/>
<rect x="308.9" y="195.1" class="st3" width="6" height="6"/>
<rect x="308.9" y="205.1" class="st3" width="6" height="6"/>
<rect x="298.9" y="205.1" class="st3" width="6" height="6"/>
<path class="st31" d="M256.9,159.2v38.4c0,3.1,2.5,5.5,5.5,5.5h6.1"/>
</svg>
